<mxfile host="app.diagrams.net" agent="Mozilla/5.0 (Windows NT 10.0; Win64; x64; rv:143.0) Gecko/20100101 Firefox/143.0" version="28.2.7">
  <diagram name="Page-1" id="PfZpxKHgtrNmZmKAbsyW">
    <mxGraphModel dx="3432" dy="1408" grid="1" gridSize="10" guides="1" tooltips="1" connect="1" arrows="1" fold="1" page="1" pageScale="1" pageWidth="827" pageHeight="1169" math="0" shadow="0">
      <root>
        <mxCell id="0" />
        <mxCell id="1" parent="0" />
        <mxCell id="8bakrNlgJKdeLin4L0It-1" style="edgeStyle=orthogonalEdgeStyle;rounded=0;orthogonalLoop=1;jettySize=auto;html=1;exitX=0.5;exitY=1;exitDx=0;exitDy=0;entryX=0.5;entryY=0;entryDx=0;entryDy=0;" edge="1" parent="1" source="CV3s7aekaj3IwNDnJ6Cb-1" target="CV3s7aekaj3IwNDnJ6Cb-6">
          <mxGeometry relative="1" as="geometry" />
        </mxCell>
        <mxCell id="CV3s7aekaj3IwNDnJ6Cb-1" value="&lt;div&gt;APLIKACJA MOBILNA / WWW&lt;/div&gt;" style="rounded=0;whiteSpace=wrap;html=1;" parent="1" vertex="1">
          <mxGeometry x="175" y="100" width="180" height="30" as="geometry" />
        </mxCell>
        <mxCell id="8bakrNlgJKdeLin4L0It-24" style="edgeStyle=orthogonalEdgeStyle;rounded=0;orthogonalLoop=1;jettySize=auto;html=1;exitX=0.5;exitY=1;exitDx=0;exitDy=0;entryX=0.5;entryY=0;entryDx=0;entryDy=0;endArrow=none;endFill=0;" edge="1" parent="1" source="CV3s7aekaj3IwNDnJ6Cb-2" target="CV3s7aekaj3IwNDnJ6Cb-4">
          <mxGeometry relative="1" as="geometry" />
        </mxCell>
        <mxCell id="CV3s7aekaj3IwNDnJ6Cb-2" value="&lt;div&gt;CENTRALNY KONTROLER (HUB)&lt;/div&gt;" style="rounded=0;whiteSpace=wrap;html=1;" parent="1" vertex="1">
          <mxGeometry x="-40" y="190" width="200" height="30" as="geometry" />
        </mxCell>
        <mxCell id="CV3s7aekaj3IwNDnJ6Cb-3" value="&lt;div&gt;INTELIGENTNY TERMOSTAT&lt;/div&gt;" style="rounded=0;whiteSpace=wrap;html=1;" parent="1" vertex="1">
          <mxGeometry x="330" y="270" width="175" height="30" as="geometry" />
        </mxCell>
        <mxCell id="CV3s7aekaj3IwNDnJ6Cb-4" value="&lt;div&gt;SYSTEM ALARMOWY&lt;/div&gt;" style="rounded=0;whiteSpace=wrap;html=1;" parent="1" vertex="1">
          <mxGeometry x="50" y="280" width="132.5" height="30" as="geometry" />
        </mxCell>
        <mxCell id="CV3s7aekaj3IwNDnJ6Cb-5" value="&lt;div&gt;KAMERA IP&lt;/div&gt;" style="rounded=0;whiteSpace=wrap;html=1;" parent="1" vertex="1">
          <mxGeometry x="50" y="330" width="80" height="30" as="geometry" />
        </mxCell>
        <mxCell id="8bakrNlgJKdeLin4L0It-14" style="edgeStyle=orthogonalEdgeStyle;rounded=0;orthogonalLoop=1;jettySize=auto;html=1;exitX=0.5;exitY=1;exitDx=0;exitDy=0;entryX=1;entryY=0.5;entryDx=0;entryDy=0;endArrow=none;endFill=0;" edge="1" parent="1" source="CV3s7aekaj3IwNDnJ6Cb-6" target="CV3s7aekaj3IwNDnJ6Cb-5">
          <mxGeometry relative="1" as="geometry" />
        </mxCell>
        <mxCell id="8bakrNlgJKdeLin4L0It-15" style="edgeStyle=orthogonalEdgeStyle;rounded=0;orthogonalLoop=1;jettySize=auto;html=1;exitX=0.5;exitY=1;exitDx=0;exitDy=0;entryX=1;entryY=0.5;entryDx=0;entryDy=0;endArrow=none;endFill=0;" edge="1" parent="1" source="CV3s7aekaj3IwNDnJ6Cb-6" target="CV3s7aekaj3IwNDnJ6Cb-4">
          <mxGeometry relative="1" as="geometry" />
        </mxCell>
        <mxCell id="8bakrNlgJKdeLin4L0It-16" style="edgeStyle=orthogonalEdgeStyle;rounded=0;orthogonalLoop=1;jettySize=auto;html=1;exitX=0.5;exitY=1;exitDx=0;exitDy=0;entryX=1;entryY=0.5;entryDx=0;entryDy=0;endArrow=none;endFill=0;" edge="1" parent="1" source="CV3s7aekaj3IwNDnJ6Cb-6" target="CV3s7aekaj3IwNDnJ6Cb-9">
          <mxGeometry relative="1" as="geometry" />
        </mxCell>
        <mxCell id="8bakrNlgJKdeLin4L0It-17" style="edgeStyle=orthogonalEdgeStyle;rounded=0;orthogonalLoop=1;jettySize=auto;html=1;exitX=0.5;exitY=1;exitDx=0;exitDy=0;entryX=0;entryY=0.5;entryDx=0;entryDy=0;endArrow=none;endFill=0;" edge="1" parent="1" source="CV3s7aekaj3IwNDnJ6Cb-6" target="CV3s7aekaj3IwNDnJ6Cb-3">
          <mxGeometry relative="1" as="geometry" />
        </mxCell>
        <mxCell id="8bakrNlgJKdeLin4L0It-18" style="edgeStyle=orthogonalEdgeStyle;rounded=0;orthogonalLoop=1;jettySize=auto;html=1;exitX=0.5;exitY=1;exitDx=0;exitDy=0;entryX=0;entryY=0.5;entryDx=0;entryDy=0;endArrow=none;endFill=0;" edge="1" parent="1" source="CV3s7aekaj3IwNDnJ6Cb-6" target="CV3s7aekaj3IwNDnJ6Cb-8">
          <mxGeometry relative="1" as="geometry" />
        </mxCell>
        <mxCell id="8bakrNlgJKdeLin4L0It-23" style="edgeStyle=orthogonalEdgeStyle;rounded=0;orthogonalLoop=1;jettySize=auto;html=1;exitX=0;exitY=0.5;exitDx=0;exitDy=0;entryX=1;entryY=0.5;entryDx=0;entryDy=0;endArrow=none;endFill=0;" edge="1" parent="1" source="CV3s7aekaj3IwNDnJ6Cb-6" target="CV3s7aekaj3IwNDnJ6Cb-2">
          <mxGeometry relative="1" as="geometry" />
        </mxCell>
        <mxCell id="CV3s7aekaj3IwNDnJ6Cb-6" value="&lt;div&gt;ROUTER WI-FI&lt;/div&gt;" style="rounded=0;whiteSpace=wrap;html=1;" parent="1" vertex="1">
          <mxGeometry x="215" y="190" width="100" height="30" as="geometry" />
        </mxCell>
        <mxCell id="8bakrNlgJKdeLin4L0It-19" style="edgeStyle=orthogonalEdgeStyle;rounded=0;orthogonalLoop=1;jettySize=auto;html=1;exitX=1;exitY=0.5;exitDx=0;exitDy=0;entryX=0;entryY=0.5;entryDx=0;entryDy=0;" edge="1" parent="1" source="CV3s7aekaj3IwNDnJ6Cb-7" target="CV3s7aekaj3IwNDnJ6Cb-5">
          <mxGeometry relative="1" as="geometry" />
        </mxCell>
        <mxCell id="8bakrNlgJKdeLin4L0It-20" style="edgeStyle=orthogonalEdgeStyle;rounded=0;orthogonalLoop=1;jettySize=auto;html=1;exitX=1;exitY=0.5;exitDx=0;exitDy=0;entryX=0;entryY=0.5;entryDx=0;entryDy=0;" edge="1" parent="1" source="CV3s7aekaj3IwNDnJ6Cb-7" target="CV3s7aekaj3IwNDnJ6Cb-4">
          <mxGeometry relative="1" as="geometry" />
        </mxCell>
        <mxCell id="8bakrNlgJKdeLin4L0It-21" style="edgeStyle=orthogonalEdgeStyle;rounded=0;orthogonalLoop=1;jettySize=auto;html=1;exitX=1;exitY=0.5;exitDx=0;exitDy=0;entryX=0;entryY=0.5;entryDx=0;entryDy=0;" edge="1" parent="1" source="CV3s7aekaj3IwNDnJ6Cb-7" target="CV3s7aekaj3IwNDnJ6Cb-9">
          <mxGeometry relative="1" as="geometry" />
        </mxCell>
        <mxCell id="CV3s7aekaj3IwNDnJ6Cb-7" value="&lt;div&gt;CZUJNIK RUCHU&lt;/div&gt;" style="rounded=0;whiteSpace=wrap;html=1;" parent="1" vertex="1">
          <mxGeometry x="-120" y="330" width="110" height="30" as="geometry" />
        </mxCell>
        <mxCell id="CV3s7aekaj3IwNDnJ6Cb-8" value="&lt;div&gt;INTELIGENTNY ZAMEK DRZWI&lt;/div&gt;" style="rounded=0;whiteSpace=wrap;html=1;" parent="1" vertex="1">
          <mxGeometry x="330" y="340" width="180" height="30" as="geometry" />
        </mxCell>
        <mxCell id="CV3s7aekaj3IwNDnJ6Cb-9" value="&lt;div&gt;INTELIGENTNA ŻARÓWKA LED&lt;/div&gt;" style="rounded=0;whiteSpace=wrap;html=1;" parent="1" vertex="1">
          <mxGeometry x="50" y="380" width="190" height="30" as="geometry" />
        </mxCell>
        <mxCell id="8bakrNlgJKdeLin4L0It-5" style="edgeStyle=orthogonalEdgeStyle;rounded=0;orthogonalLoop=1;jettySize=auto;html=1;entryX=0;entryY=0.5;entryDx=0;entryDy=0;" edge="1" parent="1" source="8bakrNlgJKdeLin4L0It-3" target="CV3s7aekaj3IwNDnJ6Cb-1">
          <mxGeometry relative="1" as="geometry" />
        </mxCell>
        <mxCell id="8bakrNlgJKdeLin4L0It-3" value="&lt;div&gt;Użytkownik&lt;/div&gt;" style="shape=umlActor;verticalLabelPosition=bottom;verticalAlign=top;html=1;outlineConnect=0;" vertex="1" parent="1">
          <mxGeometry x="70" y="85" width="30" height="60" as="geometry" />
        </mxCell>
        <mxCell id="8bakrNlgJKdeLin4L0It-25" value="INTERNET" style="ellipse;shape=cloud;whiteSpace=wrap;html=1;" vertex="1" parent="1">
          <mxGeometry x="370" y="85" width="120" height="80" as="geometry" />
        </mxCell>
        <mxCell id="8bakrNlgJKdeLin4L0It-26" style="edgeStyle=orthogonalEdgeStyle;rounded=0;orthogonalLoop=1;jettySize=auto;html=1;exitX=1;exitY=0.5;exitDx=0;exitDy=0;entryX=0.55;entryY=0.95;entryDx=0;entryDy=0;entryPerimeter=0;endArrow=none;endFill=0;" edge="1" parent="1" source="CV3s7aekaj3IwNDnJ6Cb-6" target="8bakrNlgJKdeLin4L0It-25">
          <mxGeometry relative="1" as="geometry" />
        </mxCell>
        <mxCell id="8bakrNlgJKdeLin4L0It-27" value="&lt;font style=&quot;font-size: 18px;&quot;&gt;&lt;b&gt;SCHEMAT FUNKCJONALNY SYSTEMU&lt;/b&gt;&lt;/font&gt;" style="text;html=1;whiteSpace=wrap;strokeColor=none;fillColor=none;align=center;verticalAlign=middle;rounded=0;" vertex="1" parent="1">
          <mxGeometry x="40" y="10" width="360" height="30" as="geometry" />
        </mxCell>
        <mxCell id="8bakrNlgJKdeLin4L0It-28" value="&lt;font style=&quot;font-size: 18px;&quot;&gt;&lt;b&gt;SCHEMAT NIEZAWODNOŚCIOWY SYSTEMU&lt;/b&gt;&lt;/font&gt;" style="text;html=1;whiteSpace=wrap;strokeColor=none;fillColor=none;align=center;verticalAlign=middle;rounded=0;" vertex="1" parent="1">
          <mxGeometry x="907.75" y="10" width="420" height="30" as="geometry" />
        </mxCell>
        <mxCell id="8bakrNlgJKdeLin4L0It-33" style="edgeStyle=orthogonalEdgeStyle;rounded=0;orthogonalLoop=1;jettySize=auto;html=1;exitX=1;exitY=0.5;exitDx=0;exitDy=0;entryX=0;entryY=0.5;entryDx=0;entryDy=0;" edge="1" parent="1" source="8bakrNlgJKdeLin4L0It-29" target="8bakrNlgJKdeLin4L0It-31">
          <mxGeometry relative="1" as="geometry" />
        </mxCell>
        <mxCell id="8bakrNlgJKdeLin4L0It-29" value="1" style="rounded=0;whiteSpace=wrap;html=1;" vertex="1" parent="1">
          <mxGeometry x="620" y="230" width="20" height="20" as="geometry" />
        </mxCell>
        <mxCell id="8bakrNlgJKdeLin4L0It-36" style="edgeStyle=orthogonalEdgeStyle;rounded=0;orthogonalLoop=1;jettySize=auto;html=1;exitX=1;exitY=0.5;exitDx=0;exitDy=0;entryX=0;entryY=0.5;entryDx=0;entryDy=0;" edge="1" parent="1" source="8bakrNlgJKdeLin4L0It-31" target="8bakrNlgJKdeLin4L0It-35">
          <mxGeometry relative="1" as="geometry" />
        </mxCell>
        <mxCell id="8bakrNlgJKdeLin4L0It-31" value="&lt;div&gt;ROUTER WI-FI&lt;/div&gt;" style="rounded=0;whiteSpace=wrap;html=1;" vertex="1" parent="1">
          <mxGeometry x="680" y="225" width="100" height="30" as="geometry" />
        </mxCell>
        <mxCell id="8bakrNlgJKdeLin4L0It-43" style="edgeStyle=orthogonalEdgeStyle;rounded=0;orthogonalLoop=1;jettySize=auto;html=1;exitX=1;exitY=0.5;exitDx=0;exitDy=0;entryX=0;entryY=0.5;entryDx=0;entryDy=0;" edge="1" parent="1" source="8bakrNlgJKdeLin4L0It-35" target="8bakrNlgJKdeLin4L0It-42">
          <mxGeometry relative="1" as="geometry" />
        </mxCell>
        <mxCell id="8bakrNlgJKdeLin4L0It-51" style="edgeStyle=orthogonalEdgeStyle;rounded=0;orthogonalLoop=1;jettySize=auto;html=1;exitX=1;exitY=0.5;exitDx=0;exitDy=0;entryX=0;entryY=0.5;entryDx=0;entryDy=0;" edge="1" parent="1" source="8bakrNlgJKdeLin4L0It-35" target="8bakrNlgJKdeLin4L0It-37">
          <mxGeometry relative="1" as="geometry">
            <Array as="points">
              <mxPoint x="1040" y="240" />
              <mxPoint x="1040" y="295" />
            </Array>
          </mxGeometry>
        </mxCell>
        <mxCell id="8bakrNlgJKdeLin4L0It-52" style="edgeStyle=orthogonalEdgeStyle;rounded=0;orthogonalLoop=1;jettySize=auto;html=1;exitX=1;exitY=0.5;exitDx=0;exitDy=0;entryX=0;entryY=0.5;entryDx=0;entryDy=0;" edge="1" parent="1" source="8bakrNlgJKdeLin4L0It-35" target="8bakrNlgJKdeLin4L0It-38">
          <mxGeometry relative="1" as="geometry">
            <Array as="points">
              <mxPoint x="1040" y="240" />
              <mxPoint x="1040" y="365" />
            </Array>
          </mxGeometry>
        </mxCell>
        <mxCell id="8bakrNlgJKdeLin4L0It-35" value="&lt;div&gt;CENTRALNY KONTROLER (HUB)&lt;/div&gt;" style="rounded=0;whiteSpace=wrap;html=1;" vertex="1" parent="1">
          <mxGeometry x="810" y="225" width="200" height="30" as="geometry" />
        </mxCell>
        <mxCell id="8bakrNlgJKdeLin4L0It-53" style="edgeStyle=orthogonalEdgeStyle;rounded=0;orthogonalLoop=1;jettySize=auto;html=1;exitX=1;exitY=0.5;exitDx=0;exitDy=0;entryX=0;entryY=0.5;entryDx=0;entryDy=0;" edge="1" parent="1" source="8bakrNlgJKdeLin4L0It-37" target="8bakrNlgJKdeLin4L0It-47">
          <mxGeometry relative="1" as="geometry">
            <Array as="points">
              <mxPoint x="1460" y="295" />
              <mxPoint x="1460" y="240" />
            </Array>
          </mxGeometry>
        </mxCell>
        <mxCell id="8bakrNlgJKdeLin4L0It-37" value="&lt;div&gt;INTELIGENTNY TERMOSTAT&lt;/div&gt;" style="rounded=0;whiteSpace=wrap;html=1;" vertex="1" parent="1">
          <mxGeometry x="1147.75" y="280" width="175" height="30" as="geometry" />
        </mxCell>
        <mxCell id="8bakrNlgJKdeLin4L0It-54" style="edgeStyle=orthogonalEdgeStyle;rounded=0;orthogonalLoop=1;jettySize=auto;html=1;exitX=1;exitY=0.5;exitDx=0;exitDy=0;entryX=0;entryY=0.5;entryDx=0;entryDy=0;" edge="1" parent="1" source="8bakrNlgJKdeLin4L0It-38" target="8bakrNlgJKdeLin4L0It-47">
          <mxGeometry relative="1" as="geometry">
            <Array as="points">
              <mxPoint x="1460" y="365" />
              <mxPoint x="1460" y="240" />
            </Array>
          </mxGeometry>
        </mxCell>
        <mxCell id="8bakrNlgJKdeLin4L0It-38" value="&lt;div&gt;INTELIGENTNY ZAMEK DRZWI&lt;/div&gt;" style="rounded=0;whiteSpace=wrap;html=1;" vertex="1" parent="1">
          <mxGeometry x="1147.75" y="350" width="180" height="30" as="geometry" />
        </mxCell>
        <mxCell id="8bakrNlgJKdeLin4L0It-50" style="edgeStyle=orthogonalEdgeStyle;rounded=0;orthogonalLoop=1;jettySize=auto;html=1;exitX=1;exitY=0.5;exitDx=0;exitDy=0;entryX=0;entryY=0.5;entryDx=0;entryDy=0;" edge="1" parent="1" source="8bakrNlgJKdeLin4L0It-39" target="8bakrNlgJKdeLin4L0It-47">
          <mxGeometry relative="1" as="geometry">
            <Array as="points">
              <mxPoint x="1460" y="215" />
              <mxPoint x="1460" y="240" />
            </Array>
          </mxGeometry>
        </mxCell>
        <mxCell id="8bakrNlgJKdeLin4L0It-39" value="&lt;div&gt;SYSTEM ALARMOWY&lt;/div&gt;" style="rounded=0;whiteSpace=wrap;html=1;" vertex="1" parent="1">
          <mxGeometry x="1242.75" y="200" width="132.5" height="30" as="geometry" />
        </mxCell>
        <mxCell id="8bakrNlgJKdeLin4L0It-49" style="edgeStyle=orthogonalEdgeStyle;rounded=0;orthogonalLoop=1;jettySize=auto;html=1;exitX=1;exitY=0.5;exitDx=0;exitDy=0;" edge="1" parent="1" source="8bakrNlgJKdeLin4L0It-40">
          <mxGeometry relative="1" as="geometry">
            <mxPoint x="1530" y="240" as="targetPoint" />
            <Array as="points">
              <mxPoint x="1460" y="150" />
              <mxPoint x="1460" y="240" />
            </Array>
          </mxGeometry>
        </mxCell>
        <mxCell id="8bakrNlgJKdeLin4L0It-40" value="&lt;div&gt;KAMERA IP&lt;/div&gt;" style="rounded=0;whiteSpace=wrap;html=1;" vertex="1" parent="1">
          <mxGeometry x="1242.75" y="135" width="80" height="30" as="geometry" />
        </mxCell>
        <mxCell id="8bakrNlgJKdeLin4L0It-48" style="edgeStyle=orthogonalEdgeStyle;rounded=0;orthogonalLoop=1;jettySize=auto;html=1;exitX=1;exitY=0.5;exitDx=0;exitDy=0;entryX=0;entryY=0.5;entryDx=0;entryDy=0;" edge="1" parent="1" source="8bakrNlgJKdeLin4L0It-41" target="8bakrNlgJKdeLin4L0It-47">
          <mxGeometry relative="1" as="geometry">
            <Array as="points">
              <mxPoint x="1460" y="85" />
              <mxPoint x="1460" y="240" />
            </Array>
          </mxGeometry>
        </mxCell>
        <mxCell id="8bakrNlgJKdeLin4L0It-41" value="&lt;div&gt;INTELIGENTNA ŻARÓWKA LED&lt;/div&gt;" style="rounded=0;whiteSpace=wrap;html=1;" vertex="1" parent="1">
          <mxGeometry x="1242.75" y="70" width="190" height="30" as="geometry" />
        </mxCell>
        <mxCell id="8bakrNlgJKdeLin4L0It-44" style="edgeStyle=orthogonalEdgeStyle;rounded=0;orthogonalLoop=1;jettySize=auto;html=1;exitX=1;exitY=0.5;exitDx=0;exitDy=0;entryX=0;entryY=0.5;entryDx=0;entryDy=0;" edge="1" parent="1" source="8bakrNlgJKdeLin4L0It-42" target="8bakrNlgJKdeLin4L0It-40">
          <mxGeometry relative="1" as="geometry" />
        </mxCell>
        <mxCell id="8bakrNlgJKdeLin4L0It-45" style="edgeStyle=orthogonalEdgeStyle;rounded=0;orthogonalLoop=1;jettySize=auto;html=1;exitX=1;exitY=0.5;exitDx=0;exitDy=0;entryX=0;entryY=0.5;entryDx=0;entryDy=0;" edge="1" parent="1" source="8bakrNlgJKdeLin4L0It-42" target="8bakrNlgJKdeLin4L0It-41">
          <mxGeometry relative="1" as="geometry" />
        </mxCell>
        <mxCell id="8bakrNlgJKdeLin4L0It-46" style="edgeStyle=orthogonalEdgeStyle;rounded=0;orthogonalLoop=1;jettySize=auto;html=1;exitX=1;exitY=0.5;exitDx=0;exitDy=0;entryX=0;entryY=0.5;entryDx=0;entryDy=0;" edge="1" parent="1" source="8bakrNlgJKdeLin4L0It-42" target="8bakrNlgJKdeLin4L0It-39">
          <mxGeometry relative="1" as="geometry" />
        </mxCell>
        <mxCell id="8bakrNlgJKdeLin4L0It-42" value="&lt;div&gt;CZUJNIK RUCHU&lt;/div&gt;" style="rounded=0;whiteSpace=wrap;html=1;" vertex="1" parent="1">
          <mxGeometry x="1070" y="135" width="110" height="30" as="geometry" />
        </mxCell>
        <mxCell id="8bakrNlgJKdeLin4L0It-47" value="1" style="rounded=0;whiteSpace=wrap;html=1;" vertex="1" parent="1">
          <mxGeometry x="1530" y="230" width="20" height="20" as="geometry" />
        </mxCell>
      </root>
    </mxGraphModel>
  </diagram>
</mxfile>
